<svg width="32" height="14" viewBox="0 0 32 14" fill="none" xmlns="http://www.w3.org/2000/svg">
<path fill-rule="evenodd" clip-rule="evenodd" d="M2.39341 12.5271C2.00023 12.5271 1.80364 12.33 1.80364 12.0148C1.80364 11.4236 2.47205 11.2266 3.65159 11.1084C3.65159 11.8965 3.14045 12.5271 2.39341 12.5271ZM2.90455 8.11328C2.03956 8.11328 1.05661 8.50737 0.50616 8.94087L0.977966 9.9655C1.41046 9.57141 2.11818 9.21673 2.74727 9.21673C3.33704 9.21673 3.69091 9.41378 3.69091 9.80787C3.69091 10.0837 3.455 10.202 3.06182 10.2808C1.52842 10.4778 0.30957 10.9113 0.30957 12.0936C0.30957 13.0394 0.977971 13.5911 2.03955 13.5911C2.78659 13.5911 3.45499 13.1576 3.76954 12.6453V13.4729H5.14566V10.0443C5.14566 8.66501 4.20204 8.11328 2.90455 8.11328Z" fill="#101820"/>
<path fill-rule="evenodd" clip-rule="evenodd" d="M16.9019 8.23151V13.4729H18.3959V10.9507C18.3959 9.76846 19.1037 9.41378 19.6148 9.41378C19.8507 9.41378 20.0473 9.4926 20.2439 9.61082L20.5191 8.23151C20.3225 8.15269 20.0866 8.11328 19.8507 8.11328C19.1037 8.11328 18.5925 8.46796 18.278 9.13791V8.27092L16.9019 8.23151Z" fill="#101820"/>
<path fill-rule="evenodd" clip-rule="evenodd" d="M27.4391 8.11328C26.6527 8.11328 26.0629 8.58619 25.7484 9.01969C25.4732 8.42855 24.8441 8.11328 24.1364 8.11328C23.35 8.11328 22.7996 8.54678 22.5637 9.0591V8.27092H21.1089V13.5123H22.603V10.8325C22.603 9.88668 23.1141 9.41378 23.5859 9.41378C24.0184 9.41378 24.4116 9.68964 24.4116 10.399V13.5123H25.9057V10.8325C25.9057 9.84728 26.4168 9.41378 26.8886 9.41378C27.2818 9.41378 27.7143 9.68964 27.7143 10.399V13.5517H29.2084V9.92609C29.1691 8.70441 28.3827 8.11328 27.4391 8.11328Z" fill="#101820"/>
<path fill-rule="evenodd" clip-rule="evenodd" d="M13.2846 8.2322H11.9478V7.71988C11.9478 7.01052 12.341 6.81348 12.6948 6.81348C12.9307 6.81348 13.1666 6.89229 13.3632 6.97111L13.835 5.90707C13.835 5.90707 13.3632 5.5918 12.5375 5.5918C11.5939 5.5918 10.493 6.14352 10.493 7.83811V8.2322H8.25188V7.71988C8.25188 7.01052 8.64507 6.81348 8.99894 6.81348C9.23484 6.81348 9.47074 6.85288 9.66733 6.97111L10.1392 5.90707C9.86393 5.74943 9.43142 5.5918 8.84165 5.5918C7.89802 5.5918 6.79713 6.14352 6.79713 7.83811V8.2322H5.93213V9.37505H6.79713V13.4342H8.29121V9.41446H10.5323V13.4736H12.0264V9.41446H13.3632V8.2322" fill="#101820"/>
<path d="M15.6435 8.23145H14.1494V13.4728H15.6435V8.23145Z" fill="#101820"/>
<path fill-rule="evenodd" clip-rule="evenodd" d="M14.228 7.36471H15.6828C16.5478 4.68491 19.418 2.32037 22.8386 2.32037C27.0063 2.32037 30.6236 5.51249 30.6236 10.478C30.6236 11.5027 30.5056 12.5273 30.1911 13.4731H31.6065V13.4337C31.8425 12.4485 31.9604 11.4632 31.9604 10.478C31.9604 4.96077 27.95 0.980469 22.7993 0.980469C18.8282 0.980469 15.2503 3.7785 14.228 7.36471Z" fill="#060606"/>
</svg>
