<?xml version="1.0" encoding="utf-8"?>
<!-- Generator: Adobe Illustrator 24.0.3, SVG Export Plug-In . SVG Version: 6.00 Build 0)  -->
<svg version="1.1" id="katman_1" xmlns="http://www.w3.org/2000/svg" xmlns:xlink="http://www.w3.org/1999/xlink" x="0px" y="0px"
	 viewBox="0 0 482 89.9" style="enable-background:new 0 0 482 89.9;" xml:space="preserve">
<path d="M39.7,44c0-8.1-6.1-13.8-13.6-13.8S12.5,36,12.5,44c0,7.9,6.1,13.8,13.6,13.8S39.7,52.1,39.7,44z M39.8,68.1v-6.3
	c-3.7,4.3-9.2,7-15.8,7C10.3,68.8,0,58.2,0,44s10.8-24.9,24.3-24.9c6.4,0,11.8,2.7,15.5,6.9v-6.1H52v48.2L39.8,68.1L39.8,68.1z"/>
<path d="M111.6,57.4c-4.3,0-5.5-1.5-5.5-5.6V30.5h7.9V20h-7.9V8.3H93.5V20H77.3v-2.9c0-4,1.6-5.6,6-5.6h2.8V2.2h-6
	c-10.4,0-15.3,3.3-15.3,13.3v4.6h-7v10.4h7v37.7h12.6V30.5h16.2v23.6c0,9.8,3.9,14.1,14.1,14.1h6.5V57.5h-2.6V57.4z"/>
<path d="M156.7,39.7c-0.9-6.3-6.2-10-12.4-10s-11.3,3.7-12.6,10H156.7z M131.6,47.2c0.9,7.1,6.2,11.2,12.9,11.2
	c5.3,0,9.4-2.4,11.8-6.3h12.9c-3,10.2-12.5,16.8-24.9,16.8c-15.1,0-25.6-10.2-25.6-24.7s11.2-25,25.9-25c14.9,0,25.6,10.6,25.6,25
	c0,1.1-0.1,2.1-0.3,3.1h-38.3V47.2z"/>
<path d="M250,44c0-7.8-6.1-13.8-13.6-13.8S222.8,36,222.8,44c0,7.9,6.1,13.8,13.6,13.8C244,57.8,250,51.8,250,44z M210.5,20h12.3
	v6.3c3.7-4.4,9.2-7.1,15.8-7.1c13.5,0,24,10.7,24,24.8c0,14.2-10.8,24.9-24.3,24.9c-6.3,0-11.5-2.4-15.1-6.5v25.5h-12.7L210.5,20
	L210.5,20z"/>
<path d="M306.8,44c0-8.1-6.1-13.8-13.6-13.8S279.6,36,279.6,44c0,7.9,6.1,13.8,13.6,13.8C300.7,57.8,306.8,52.1,306.8,44z
	 M306.9,68.1v-6.3c-3.7,4.3-9.2,7-15.8,7c-13.7,0-24-10.6-24-24.8s10.8-24.9,24.3-24.9c6.4,0,11.8,2.7,15.5,6.9v-6.1h12.3v48.2
	L306.9,68.1L306.9,68.1z"/>
<path d="M188.4,24.7c0,0,3.1-5.6,10.8-5.6c3.3,0,5.4,1.1,5.4,1.1v12.3c0,0-4.6-2.8-8.8-2.2s-6.9,4.3-6.9,9.3v28.5h-12.7V19.9h12.3
	v4.8H188.4z"/>
<path d="M376.4,20l-31,67.8h-13.1l12.2-26.2L324,20h14.8l12,27.8L363.1,20H376.4z"/>
<path d="M475.2,18.9L444.5,1.8c-9-5-20.3,1.3-20.3,11.3v1.8c0,1.6,0.9,3.1,2.3,3.8l5.8,3.2c1.7,1,3.8-0.2,3.8-2.1v-4.4
	c0-2.2,2.4-3.5,4.4-2.5l26.6,14.8c2,1.1,2,3.8,0,4.9l-26.5,14.9c-2,1.1-4.4-0.3-4.4-2.5v-2.3c0-10.1-11.3-16.3-20.3-11.3l-30.7,17.1
	c-9,5-9,17.6,0,22.6l30.7,17.1c9,5,20.3-1.3,20.3-11.3v-1.8c0-1.6-0.9-3-2.3-3.8l-5.8-3.2c-1.7-1-3.8,0.2-3.8,2.1v4.4
	c0,2.2-2.4,3.5-4.4,2.5l-26.6-14.8c-2-1.1-2-3.8,0-4.9l26.6-14.8c2-1.1,4.4,0.3,4.4,2.5v2.3c0,10.1,11.3,16.3,20.3,11.3l30.7-17.1
	C484.3,36.5,484.3,23.9,475.2,18.9z"/>
</svg>
