<svg width="24" height="24" viewBox="0 0 24 24" fill="none" xmlns="http://www.w3.org/2000/svg">
<path d="M22.9267 9.61667C22.8533 9.54333 22.7433 9.47 22.6333 9.47H17.6467C17.3167 4.70333 14.8967 1 12 1C9.10333 1 6.68333 4.70333 6.35333 9.47H1.36667C1.25667 9.47 1.14667 9.50667 1.07333 9.61667C1 9.69 1 9.8 1 9.91L3.45667 22.4133C3.53 22.7433 3.82333 23 4.19 23H19.8467C20.2133 23 20.5067 22.7433 20.58 22.4133L23 9.91C23 9.8 23 9.69 22.9267 9.61667ZM12 1.73333C14.53 1.73333 16.5833 5.10667 16.8767 9.47H7.12333C7.41667 5.10667 9.47 1.73333 12 1.73333ZM19.81 22.2667V22.6333V22.2667H4.19L1.80667 10.2033H6.31667C6.31667 10.3133 6.31667 10.4233 6.31667 10.57C6.31667 11.34 6.35333 12.0733 6.46333 12.8433C6.5 13.0267 6.68333 13.1733 6.86667 13.1367C7.12333 13.1 7.23333 12.9167 7.23333 12.7333C7.12333 12.0367 7.08667 11.3033 7.08667 10.57C7.08667 10.46 7.08667 10.35 7.08667 10.2033H16.95C16.95 10.3133 16.95 10.4233 16.95 10.57C16.95 11.3033 16.9133 12.0367 16.8033 12.7333C16.7667 12.9167 16.9133 13.1367 17.0967 13.1367H17.1333C17.3167 13.1367 17.4633 12.99 17.5 12.8067C17.61 12.0733 17.6467 11.3033 17.6467 10.5333C17.6467 10.4233 17.6467 10.3133 17.6467 10.1667H22.1567L19.81 22.2667Z" fill="#060606"/>
<path d="M19.81 22.2667V22.6333V22.2667ZM19.81 22.2667H4.19L1.80667 10.2033H6.31667C6.31667 10.3133 6.31667 10.4233 6.31667 10.57C6.31667 11.34 6.35333 12.0733 6.46333 12.8433C6.5 13.0267 6.68333 13.1733 6.86667 13.1367C7.12333 13.1 7.23333 12.9167 7.23333 12.7333C7.12333 12.0367 7.08667 11.3033 7.08667 10.57C7.08667 10.46 7.08667 10.35 7.08667 10.2033H16.95C16.95 10.3133 16.95 10.4233 16.95 10.57C16.95 11.3033 16.9133 12.0367 16.8033 12.7333C16.7667 12.9167 16.9133 13.1367 17.0967 13.1367H17.1333C17.3167 13.1367 17.4633 12.99 17.5 12.8067C17.61 12.0733 17.6467 11.3033 17.6467 10.5333C17.6467 10.4233 17.6467 10.3133 17.6467 10.1667H22.1567L19.81 22.2667ZM22.9267 9.61667C22.8533 9.54333 22.7433 9.47 22.6333 9.47H17.6467C17.3167 4.70333 14.8967 1 12 1C9.10333 1 6.68333 4.70333 6.35333 9.47H1.36667C1.25667 9.47 1.14667 9.50667 1.07333 9.61667C1 9.69 1 9.8 1 9.91L3.45667 22.4133C3.53 22.7433 3.82333 23 4.19 23H19.8467C20.2133 23 20.5067 22.7433 20.58 22.4133L23 9.91C23 9.8 23 9.69 22.9267 9.61667ZM12 1.73333C14.53 1.73333 16.5833 5.10667 16.8767 9.47H7.12333C7.41667 5.10667 9.47 1.73333 12 1.73333Z" stroke="#060606"/>
</svg>
