<svg width="15" height="18" viewBox="0 0 15 18" fill="none" xmlns="http://www.w3.org/2000/svg">
<path d="M1.64062 5.76923C1.64063 4.23914 2.25795 2.77171 3.3568 1.68977C4.45564 0.607828 5.946 0 7.5 0C9.054 0 10.5444 0.607828 11.6432 1.68977C12.742 2.77171 13.3594 4.23914 13.3594 5.76923V7.61539C13.3594 7.67659 13.3347 7.73529 13.2907 7.77856C13.2468 7.82184 13.1872 7.84615 13.125 7.84615H10.7812C10.7191 7.84615 10.6595 7.82184 10.6155 7.77856C10.5716 7.73529 10.5469 7.67659 10.5469 7.61539V5.76923C10.5469 4.97358 10.2259 4.21052 9.65447 3.64791C9.08307 3.0853 8.30808 2.76923 7.5 2.76923C6.69192 2.76923 5.91693 3.0853 5.34553 3.64791C4.77413 4.21052 4.45312 4.97358 4.45312 5.76923V7.61539C4.45313 7.67659 4.42843 7.73529 4.38448 7.77856C4.34052 7.82184 4.28091 7.84615 4.21875 7.84615H1.875C1.81284 7.84615 1.75323 7.82184 1.70927 7.77856C1.66532 7.73529 1.64062 7.67659 1.64062 7.61539V5.76923ZM0 9.69231V16.8462C0 17.1522 0.123465 17.4457 0.343234 17.662C0.563003 17.8784 0.861074 18 1.17188 18H13.8281C14.1389 18 14.437 17.8784 14.6568 17.662C14.8765 17.4457 15 17.1522 15 16.8462V9.69231C15 9.38629 14.8765 9.0928 14.6568 8.87642C14.437 8.66003 14.1389 8.53846 13.8281 8.53846H1.17188C0.861074 8.53846 0.563003 8.66003 0.343234 8.87642C0.123465 9.0928 0 9.38629 0 9.69231Z" fill="#FAFAFA"/>
</svg>
