<svg width="101" height="24" viewBox="0 0 101 24" fill="none" xmlns="http://www.w3.org/2000/svg">
<path d="M26.112 7.56651C25.3257 5.87193 23.7923 4.80789 21.5118 4.80789C20.8041 4.80789 20.1357 5.00493 19.5066 5.3202C18.8775 5.63547 18.3271 6.10838 17.9339 6.66011L17.8553 6.77833V0.157636C17.8553 0.118227 17.8553 0.0788178 17.816 0.0394089C17.7373 0 17.698 0 17.6587 0H14.4346C14.3953 0 14.356 0 14.3167 0.0394089C14.2773 0.0788178 14.2773 0.118227 14.2773 0.157636V19.1133C14.2773 19.1527 14.2773 19.1921 14.3167 19.2315C14.356 19.271 14.3953 19.271 14.4346 19.271H17.8946C17.9339 19.271 17.9732 19.271 18.0125 19.2315C18.0519 19.1921 18.0519 19.1527 18.0519 19.1133V11.0345C18.0519 9.45814 19.1134 8.35469 20.7648 8.35469C22.6127 8.35469 23.0452 9.85223 23.0452 11.3892V19.1133C23.0452 19.1527 23.0452 19.1921 23.0845 19.2315C23.1239 19.271 23.1632 19.271 23.2025 19.271H26.6625C26.7018 19.271 26.7411 19.271 26.7804 19.2315C26.8197 19.1921 26.8197 19.1527 26.8197 19.1133V10.9163C26.8197 10.6404 26.8197 10.3645 26.7804 10.0887C26.7018 9.22169 26.4659 8.35469 26.112 7.56651Z" fill="#060606"/>
<path d="M8.77263 10.3647C8.77263 10.3647 7.00333 9.93121 6.37424 9.77358C5.70584 9.61594 4.60494 9.26126 4.60494 8.39427C4.60494 7.52727 5.50925 7.25141 6.45288 7.25141C7.39651 7.25141 8.41877 7.48786 8.49741 8.51249C8.49741 8.5519 8.53673 8.59131 8.53673 8.59131C8.57604 8.63072 8.61536 8.63072 8.65468 8.63072H12.0753C12.1147 8.63072 12.1146 8.63072 12.1146 8.63072L12.154 8.59131L12.1933 8.5519C12.1933 8.5519 12.1933 8.51249 12.1933 8.47308C11.9967 5.16274 9.08717 3.98047 6.41356 3.98047C3.22881 3.98047 0.909058 6.06914 0.909058 8.39427C0.909058 10.0888 1.38087 11.6652 5.11607 12.7687C5.78448 12.9657 6.64947 13.2022 7.43583 13.4386C8.37946 13.7145 8.89059 14.1086 8.89059 14.7391C8.89059 15.4485 7.829 15.9608 6.80674 15.9608C5.31266 15.9608 4.25108 15.4091 4.17244 14.4238C4.17244 14.3844 4.13313 14.345 4.13313 14.345C4.09381 14.3056 4.05449 14.3056 4.01517 14.3056H0.594517C0.555199 14.3056 0.5552 14.3056 0.5552 14.3056C0.5552 14.3056 0.51588 14.3056 0.51588 14.345L0.476562 14.3844V14.4238C0.633834 17.5371 3.66131 19.2317 6.45288 19.2317C10.6206 19.2317 12.5078 16.8672 12.5078 14.6603C12.5471 13.6357 12.3112 11.2711 8.77263 10.3647Z" fill="#060606"/>
<path d="M52.8086 4.7689C51.0786 4.7689 49.6238 5.71471 48.6802 6.89698V4.88713C48.6802 4.84772 48.6802 4.80831 48.6409 4.7689C48.6016 4.72949 48.5623 4.72949 48.5623 4.72949H45.2989C45.2596 4.72949 45.2202 4.72949 45.1809 4.7689C45.1416 4.80831 45.1416 4.84772 45.1416 4.88713V23.4881C45.1416 23.5275 45.1416 23.567 45.1809 23.567C45.2202 23.6064 45.2596 23.6064 45.2989 23.6064H48.7588C48.7982 23.6064 48.8375 23.6064 48.8375 23.567C48.8375 23.5275 48.8768 23.4881 48.8768 23.4881V17.4192H48.9161C49.4666 18.2467 50.9606 19.2714 52.9265 19.2714C56.6224 19.2714 59.7285 16.1975 59.7285 12.0201C59.7678 8.03984 56.701 4.7689 52.8086 4.7689ZM52.494 15.7246C51.747 15.7246 51.0393 15.5275 50.4102 15.1334C49.7811 14.7394 49.3093 14.1876 48.9948 13.4783C48.7195 12.8083 48.6016 12.0595 48.7588 11.3502C48.8768 10.6408 49.2307 9.97088 49.7418 9.41915C50.2529 8.90684 50.9213 8.51275 51.629 8.39452C52.3368 8.23688 53.0838 8.3157 53.7522 8.59157C54.4206 8.86743 55.0104 9.34033 55.4036 9.93147C55.7967 10.5226 56.0326 11.2714 56.0326 11.9807C56.0326 12.4536 55.954 12.9265 55.7574 13.3995C55.6001 13.833 55.3249 14.2664 54.9711 14.5817C54.6565 14.9364 54.224 15.2123 53.7915 15.3699C53.4377 15.6064 52.9659 15.7246 52.494 15.7246Z" fill="#060606"/>
<path d="M34.8402 3.98047C31.6161 3.98047 30.0041 5.08392 28.7066 5.95091L28.6673 5.99032C28.5886 6.02973 28.5493 6.10855 28.5493 6.18737C28.5493 6.26619 28.5493 6.345 28.5886 6.42382L29.8861 8.63072C29.9254 8.67013 29.9254 8.70954 29.9648 8.74895C30.0041 8.78836 30.0434 8.78836 30.0827 8.78836C30.122 8.78836 30.1613 8.78836 30.24 8.78836C30.2793 8.78836 30.3186 8.74895 30.3579 8.70954L30.4759 8.63072C31.1443 8.079 32.2059 7.33023 34.8009 7.13318C36.2556 7.01496 37.4745 7.40904 38.4181 8.23663C39.4404 9.18245 40.0301 10.68 40.0301 12.2563C40.0301 15.1726 38.3001 17.0248 35.5479 17.0642C33.2675 17.0642 31.7341 15.8426 31.7341 14.1086C31.7341 13.1627 32.1666 12.5716 32.9922 11.9411C33.0709 11.9017 33.1102 11.8228 33.1102 11.744C33.1102 11.6652 33.1102 11.5864 33.0709 11.5076L31.9307 9.34008C31.8913 9.30067 31.8913 9.26126 31.852 9.22185C31.8127 9.18245 31.7734 9.18245 31.7341 9.14304C31.6947 9.14304 31.6554 9.14304 31.6161 9.14304C31.5768 9.14304 31.5375 9.18245 31.4982 9.18245C30.2007 9.93122 28.6279 11.3499 28.7066 14.0692C28.8245 17.4977 31.6554 20.1381 35.3513 20.2169H35.5479H35.7838C40.1874 20.0593 43.3721 16.7884 43.3721 12.3746C43.2935 8.35486 40.3447 3.98047 34.8402 3.98047Z" fill="#060606"/>
<path d="M73.4506 6.06934H71.2488C71.2095 6.06934 71.1309 6.10874 71.0916 6.10874C71.0522 6.14815 71.0522 6.18756 71.0522 6.26638V10.9166C71.0522 10.956 71.0916 11.0349 71.0916 11.0349C71.1309 11.0743 71.1702 11.0743 71.2488 11.0743H73.4506C74.7874 11.0743 75.7704 10.0102 75.7704 8.5521C75.7704 7.13338 74.7874 6.06934 73.4506 6.06934Z" fill="#060606"/>
<path d="M80.2134 14.2663C80.2134 14.9363 80.7638 15.3304 81.7861 15.3304C83.1229 15.3304 83.9093 14.621 83.9093 13.3205V12.9658L81.9041 13.084C80.8425 13.084 80.2134 13.5175 80.2134 14.2663Z" fill="#060606"/>
<path d="M96.5696 0.0390625H66.9239C66.4521 0.0390625 65.941 0.11788 65.5085 0.314925C65.076 0.511969 64.6435 0.787832 64.2896 1.1031C63.9357 1.45778 63.6605 1.85187 63.5033 2.32478C63.3067 2.75828 63.228 3.27059 63.228 3.7435V20.0194C63.228 21.0046 63.6212 21.9504 64.3289 22.6598C65.0366 23.3691 65.9803 23.7632 66.9632 23.7632H96.5696C97.0414 23.7632 97.5525 23.6844 97.985 23.4874C98.4175 23.2903 98.85 23.0145 99.2039 22.6992C99.5577 22.3445 99.833 21.9504 99.9902 21.4775C100.187 21.044 100.265 20.5317 100.265 20.0588V3.7435C100.265 3.27059 100.187 2.75828 99.9902 2.32478C99.7936 1.89128 99.5184 1.45778 99.2039 1.1031C98.85 0.748423 98.4568 0.472561 97.985 0.314925C97.5132 0.157289 97.0414 0.0390625 96.5696 0.0390625ZM73.5686 12.9258H71.2489C71.2096 12.9258 71.1309 12.9652 71.0916 12.9652C71.0523 13.0046 71.0523 13.044 71.0523 13.1228V16.4332C71.0523 16.4726 71.013 16.5514 71.013 16.5908C70.9736 16.6302 70.9343 16.6302 70.8557 16.6302H69.2043C69.165 16.6302 69.0864 16.5908 69.0471 16.5908C69.0078 16.5514 69.0078 16.512 69.0078 16.4332V4.45286C69.0078 4.41345 69.0471 4.33463 69.0471 4.29522C69.0864 4.25582 69.1257 4.25582 69.2043 4.25582H73.5686C76.0456 4.25582 77.8149 6.06863 77.8149 8.5908C77.8149 11.113 76.0456 12.9258 73.5686 12.9258ZM85.8358 16.4332C85.8358 16.4726 85.8358 16.4726 85.8358 16.512C85.8358 16.5514 85.7965 16.5514 85.7965 16.5908C85.7965 16.5908 85.7572 16.6302 85.7178 16.6302C85.6785 16.6302 85.6785 16.6302 85.6392 16.6302H84.1058C84.0665 16.6302 84.0665 16.6302 84.0272 16.6302C83.9879 16.6302 83.9879 16.5908 83.9485 16.5908C83.9485 16.5908 83.9092 16.5514 83.9092 16.512C83.9092 16.4726 83.9092 16.4726 83.9092 16.4332V16.0785C83.9092 16.0391 83.9092 15.9997 83.8699 15.9997C83.8699 15.9603 83.8306 15.9603 83.7913 15.9603C83.7519 15.9603 83.7126 15.9603 83.7126 15.9603C83.6733 15.9603 83.6733 15.9997 83.634 15.9997C83.1622 16.512 82.4151 16.8667 81.2356 16.8667C79.4663 16.8667 78.2868 15.9603 78.2868 14.3445C78.2868 13.9504 78.3654 13.5563 78.5227 13.2016C78.6799 12.847 78.9552 12.5317 79.2697 12.3346C79.8988 11.8617 80.8817 11.6253 82.3758 11.5465L83.9485 11.5071V11.0341C83.9485 10.1277 83.3194 9.73365 82.3365 9.73365C81.3536 9.73365 80.7245 10.0883 80.5672 10.6401C80.5672 10.6795 80.5279 10.7189 80.4886 10.7583C80.4493 10.7977 80.4099 10.7977 80.3706 10.7977H78.8372C78.7979 10.7977 78.7979 10.7977 78.7586 10.7977C78.7193 10.7977 78.7193 10.7583 78.6799 10.7583C78.6799 10.7189 78.6406 10.7189 78.6406 10.6795C78.6406 10.6401 78.6406 10.6401 78.6406 10.6006C78.8765 9.22134 79.9774 8.19671 82.3758 8.19671C84.9315 8.19671 85.8358 9.37897 85.8358 11.6647V16.4332ZM95.508 8.66961L92.048 17.8913C91.2617 20.0194 89.8855 20.5711 88.3915 20.5711C88.1162 20.5711 87.841 20.5317 87.5658 20.4529C87.5265 20.4529 87.4871 20.4135 87.4478 20.3741C87.4085 20.3347 87.4085 20.2952 87.4085 20.2558V18.8371C87.4085 18.7977 87.4085 18.7977 87.4085 18.7583C87.4085 18.7189 87.4478 18.7189 87.4478 18.6795C87.4871 18.6795 87.4871 18.6401 87.5265 18.6401C87.5658 18.6401 87.5658 18.6401 87.6051 18.6401C87.841 18.6795 88.0769 18.7189 88.3128 18.7189C88.7453 18.7583 89.1385 18.6007 89.4924 18.3642C89.8462 18.1278 90.0821 17.7731 90.2001 17.379L90.318 17.0637C90.318 17.0243 90.318 16.9849 90.318 16.9455L87.094 8.66961C87.094 8.63021 87.094 8.5908 87.094 8.5908C87.094 8.55139 87.094 8.51198 87.1333 8.51198C87.1333 8.47257 87.1726 8.47257 87.2119 8.43316C87.2512 8.43316 87.2512 8.39375 87.2906 8.39375H88.8633C88.9026 8.39375 88.9419 8.39375 88.9812 8.43316C89.0205 8.47257 89.0205 8.47257 89.0599 8.51198L91.2617 14.3839C91.2617 14.4233 91.301 14.4627 91.3403 14.4627C91.3796 14.5021 91.4189 14.5021 91.4582 14.5021C91.4976 14.5021 91.5369 14.5021 91.5762 14.4627C91.6155 14.4233 91.6548 14.4233 91.6548 14.3839L93.5421 8.55139C93.5421 8.51198 93.5814 8.47257 93.6207 8.43316C93.66 8.39375 93.6994 8.39375 93.7387 8.39375H95.3507C95.39 8.39375 95.4294 8.39375 95.4294 8.43316C95.4687 8.43316 95.4687 8.47257 95.508 8.51198C95.508 8.55139 95.5473 8.55139 95.5473 8.5908C95.508 8.5908 95.508 8.63021 95.508 8.66961Z" fill="#060606"/>
</svg>
